<?xml version="1.0" encoding="UTF-8"?>
<svg id="Ebene_2" xmlns="http://www.w3.org/2000/svg" viewBox="0 0 59.69 90.92">
  <defs>
    <style>
      .cls-1 {
        fill: #07184e;
      }
    </style>
  </defs>
  <g id="logo">
    <g>
      <path class="cls-1" d="M47.56,25.18h-23.93c-1.11,0-2.02.91-2.02,2.02v15.79h0c0,1.21-.98,2.2-2.2,2.2h0s-14.82,0-14.82,0c-1.12,0-2.02.91-2.02,2.02v37.64c0,3.35,2.72,6.07,6.07,6.07h9.28c2.27,0,4.41-1.04,5.82-2.81l11.71-14.74c.79-.99.08-2.46-1.19-2.46h-10.63c-1.12,0-2.02-.91-2.02-2.02v-21.49c0-1.22.99-2.2,2.2-2.2h0s14.82,0,14.82,0c1.12,0,2.02.91,2.02,2.02v41.68c0,1.11.91,2.02,2.02,2.02h15c1.12,0,2.02-.91,2.02-2.02v-51.58c0-6.7-5.43-12.14-12.14-12.14Z"/>
      <path class="cls-1" d="M12.02,21.48c6.78,0,12.15-4.35,12.15-10.61S18.79,0,12.02,0,0,4.48,0,10.87s5.11,10.61,12.02,10.61Z"/>
    </g>
  </g>
</svg>