<?xml version="1.0" encoding="UTF-8"?>
<svg id="Ebene_2" xmlns="http://www.w3.org/2000/svg" viewBox="0 0 723.49 172.83">
  <defs>
    <style>
      .cls-1 {
        fill: #fff;
      }
    </style>
  </defs>
  <g id="logo">
    <g>
      <g>
        <g>
          <path class="cls-1" d="M142.63,91.14h-19.87V1.42h19.87v89.72Z"/>
          <path class="cls-1" d="M160.83,25.39h19.1v8.97c5.51-7.69,12.43-10.38,20.38-10.38,18.46,0,23.45,14.74,23.45,31.4v35.76h-19.09v-35.37c0-9.1-3.33-16.02-12.18-16.02s-12.56,7.05-12.56,16.15v35.24h-19.1V25.39Z"/>
          <path class="cls-1" d="M239.4,25.39h19.1v8.97c5.51-7.69,12.43-10.38,20.38-10.38,18.46,0,23.45,14.74,23.45,31.4v35.76h-19.09v-35.37c0-9.1-3.33-16.02-12.18-16.02s-12.56,7.05-12.56,16.15v35.24h-19.1V25.39Z"/>
          <path class="cls-1" d="M385.9,25.39v65.75h-19.09v-9.61c-4.74,6.79-11.02,11.02-20.64,11.02-19.99,0-32.04-15.38-32.04-34.6s11.15-33.97,31.66-33.97c8.84,0,16.53,4.36,21.02,10.38v-8.97h19.09ZM350.14,77.04c9.36,0,17.17-6.02,17.17-17.94s-7.31-19.61-17.69-19.61-16.41,8.46-16.41,18.58,6.41,18.97,16.92,18.97Z"/>
          <path class="cls-1" d="M462.29,55.89v35.24h-18.97v-35.37c0-8.97-2.56-16.02-11.02-16.02s-10.89,7.31-10.89,16.15v35.24h-19.1V25.39h19.1v8.97c4.23-6.54,10.38-10.38,17.56-10.38,10,0,16.79,4.36,20.12,11.02,5-9.61,14.48-11.02,20.76-11.02,18.46,0,23.45,14.74,23.45,31.4v35.76h-19.1v-35.37c0-8.97-2.56-16.02-11.02-16.02s-10.89,7.31-10.89,16.15Z"/>
          <path class="cls-1" d="M586.87,25.39v65.75h-19.09v-9.61c-4.74,6.79-11.02,11.02-20.64,11.02-19.99,0-32.04-15.38-32.04-34.6s11.15-33.97,31.66-33.97c8.84,0,16.53,4.36,21.02,10.38v-8.97h19.09ZM551.11,77.04c9.36,0,17.17-6.02,17.17-17.94s-7.31-19.61-17.69-19.61-16.41,8.46-16.41,18.58,6.41,18.97,16.92,18.97Z"/>
          <path class="cls-1" d="M621.86,39.74c2.18-11.92,12.3-15.76,18.07-15.76,2.18,0,2.82.13,4.87.51v18.84c-2.69-.64-6.15-.9-8.07-.9-7.18,0-14.35,4.23-14.35,12.95v35.76h-19.1V25.39h18.59v14.35Z"/>
          <path class="cls-1" d="M692.35,25.39h21.15v2.56l-21.79,27.43,8.59,13.71c2.95,4.49,5.25,5.9,8.97,5.9,1.41,0,4.74-.64,7.05-2.31l7.18,13.46c-5.9,5.26-12.05,6.41-17.17,6.41-7.43,0-14.23-2.43-19.48-10l-13.2-21.28v29.86h-19.1V1.42h19.1v50.63l18.71-26.66Z"/>
        </g>
        <g>
          <path class="cls-1" d="M47.67,25.24h-23.99c-1.12,0-2.03.91-2.03,2.03v15.83h0c0,1.22-.99,2.2-2.2,2.2h0s-14.85,0-14.85,0c-1.12,0-2.03.91-2.03,2.03v37.73c0,3.36,2.72,6.08,6.08,6.08h9.3c2.27,0,4.42-1.04,5.84-2.82l11.74-14.78c.79-1,.08-2.47-1.19-2.47h-10.65c-1.12,0-2.03-.91-2.03-2.03v-21.54c0-1.22.99-2.21,2.21-2.21h0s14.85,0,14.85,0c1.12,0,2.03.91,2.03,2.03v41.78c0,1.12.91,2.03,2.03,2.03h15.04c1.12,0,2.03-.91,2.03-2.03v-51.7c0-6.72-5.45-12.17-12.17-12.17Z"/>
          <path class="cls-1" d="M12.05,21.53c6.79,0,12.18-4.36,12.18-10.64S18.84,0,12.05,0,0,4.49,0,10.89s5.13,10.64,12.05,10.64Z"/>
        </g>
      </g>
      <g>
        <path class="cls-1" d="M122.77,162.44v-36.54h3.86v36.54h-3.86Z"/>
        <path class="cls-1" d="M151.73,134.78c2.23,0,4.18.43,5.87,1.28,1.69.85,3.01,2.15,3.97,3.89.96,1.74,1.44,3.93,1.44,6.58v15.92h-3.71v-15.55c0-2.89-.72-5.07-2.17-6.55-1.44-1.48-3.47-2.22-6.08-2.22-1.95,0-3.65.39-5.09,1.17-1.44.78-2.56,1.91-3.34,3.39-.78,1.48-1.17,3.26-1.17,5.35v14.41h-3.71v-27.4h3.55v7.52l-.57-1.41c.87-1.98,2.26-3.54,4.18-4.67,1.91-1.13,4.19-1.7,6.84-1.7Z"/>
        <path class="cls-1" d="M179.56,162.44l-12.16-27.4h3.86l11.17,25.42h-1.83l11.33-25.42h3.65l-12.21,27.4h-3.81Z"/>
        <path class="cls-1" d="M202.68,128.99c-.77,0-1.41-.26-1.93-.78s-.78-1.15-.78-1.88.26-1.35.78-1.85c.52-.5,1.17-.76,1.93-.76s1.41.24,1.93.73c.52.49.78,1.1.78,1.83s-.25,1.41-.76,1.93c-.51.52-1.16.78-1.96.78ZM200.8,162.44v-27.4h3.71v27.4h-3.71Z"/>
        <path class="cls-1" d="M222.2,162.7c-2.26,0-4.4-.32-6.42-.97-2.02-.64-3.6-1.45-4.75-2.43l1.67-2.92c1.11.83,2.54,1.56,4.28,2.17,1.74.61,3.57.91,5.48.91,2.61,0,4.49-.41,5.64-1.23,1.15-.82,1.72-1.9,1.72-3.26,0-1.01-.32-1.8-.97-2.37-.64-.57-1.49-1.01-2.53-1.3-1.04-.3-2.21-.55-3.5-.76-1.29-.21-2.57-.45-3.84-.73s-2.43-.69-3.47-1.23c-1.04-.54-1.89-1.28-2.53-2.22-.64-.94-.97-2.19-.97-3.76s.42-2.84,1.25-4.02,2.06-2.11,3.68-2.79c1.62-.68,3.59-1.02,5.92-1.02,1.77,0,3.55.23,5.32.7s3.24,1.09,4.39,1.85l-1.62,2.98c-1.22-.84-2.52-1.44-3.92-1.8-1.39-.36-2.78-.55-4.18-.55-2.47,0-4.29.43-5.45,1.28-1.17.85-1.75,1.94-1.75,3.26,0,1.04.32,1.86.97,2.45s1.5,1.05,2.56,1.38c1.06.33,2.23.6,3.5.81,1.27.21,2.54.46,3.81.76,1.27.3,2.44.7,3.5,1.2,1.06.5,1.91,1.22,2.56,2.14s.97,2.13.97,3.63c0,1.6-.44,2.98-1.33,4.15-.89,1.17-2.17,2.07-3.86,2.71-1.69.64-3.73.97-6.13.97Z"/>
        <path class="cls-1" d="M242.19,128.99c-.77,0-1.41-.26-1.93-.78s-.78-1.15-.78-1.88.26-1.35.78-1.85c.52-.5,1.17-.76,1.93-.76s1.41.24,1.93.73c.52.49.78,1.1.78,1.83s-.25,1.41-.76,1.93c-.51.52-1.16.78-1.96.78ZM240.31,162.44v-27.4h3.71v27.4h-3.71Z"/>
        <path class="cls-1" d="M254.35,162.44v-38.73h3.71v19.42l-.52,5.53.37,5.53v8.25h-3.55ZM268.5,162.7c-2.4,0-4.56-.55-6.47-1.64-1.91-1.1-3.43-2.69-4.54-4.78-1.11-2.09-1.67-4.61-1.67-7.57s.57-5.52,1.7-7.59c1.13-2.07,2.65-3.64,4.57-4.72,1.91-1.08,4.05-1.62,6.42-1.62,2.61,0,4.95.58,7.02,1.75,2.07,1.17,3.7,2.79,4.88,4.88,1.18,2.09,1.77,4.52,1.77,7.31s-.59,5.18-1.77,7.28c-1.18,2.11-2.81,3.75-4.88,4.93-2.07,1.18-4.41,1.77-7.02,1.77ZM268.24,159.42c1.95,0,3.69-.44,5.22-1.33,1.53-.89,2.75-2.14,3.65-3.76.9-1.62,1.36-3.49,1.36-5.61s-.45-4.04-1.36-5.64c-.91-1.6-2.12-2.84-3.65-3.73-1.53-.89-3.27-1.33-5.22-1.33s-3.7.44-5.25,1.33c-1.55.89-2.77,2.13-3.65,3.73-.89,1.6-1.33,3.48-1.33,5.64s.44,3.99,1.33,5.61c.89,1.62,2.11,2.87,3.65,3.76,1.55.89,3.3,1.33,5.25,1.33Z"/>
        <path class="cls-1" d="M289.74,162.44v-38.73h3.71v38.73h-3.71Z"/>
        <path class="cls-1" d="M315.42,162.7c-2.85,0-5.36-.6-7.52-1.8-2.16-1.2-3.85-2.85-5.06-4.96-1.22-2.11-1.83-4.52-1.83-7.23s.58-5.12,1.75-7.2c1.17-2.09,2.77-3.73,4.8-4.93,2.04-1.2,4.32-1.8,6.86-1.8s4.86.58,6.86,1.75c2,1.17,3.57,2.8,4.72,4.91,1.15,2.11,1.72,4.53,1.72,7.28,0,.17,0,.36-.03.55-.02.19-.03.39-.03.6h-23.85v-2.77h21.87l-1.46,1.1c0-1.98-.43-3.75-1.28-5.3-.85-1.55-2.01-2.76-3.47-3.63-1.46-.87-3.15-1.3-5.06-1.3s-3.57.44-5.06,1.3c-1.5.87-2.66,2.09-3.5,3.65-.83,1.57-1.25,3.36-1.25,5.38v.57c0,2.09.46,3.92,1.38,5.51.92,1.58,2.21,2.82,3.86,3.71,1.65.89,3.54,1.33,5.66,1.33,1.67,0,3.23-.29,4.67-.89,1.44-.59,2.69-1.5,3.73-2.71l2.09,2.4c-1.22,1.46-2.74,2.58-4.57,3.34-1.83.76-3.84,1.15-6.03,1.15Z"/>
        <path class="cls-1" d="M358.07,162.44l-12.32-36.54h3.97l11.54,34.4h-1.98l11.9-34.4h3.55l11.74,34.4h-1.88l11.64-34.4h3.71l-12.32,36.54h-4.07l-11.22-32.62h1.04l-11.27,32.62h-4.02Z"/>
        <path class="cls-1" d="M411.83,162.7c-2.05,0-3.84-.34-5.35-1.02-1.51-.68-2.67-1.62-3.47-2.82-.8-1.2-1.2-2.58-1.2-4.15,0-1.43.34-2.72,1.02-3.89.68-1.17,1.79-2.11,3.34-2.82,1.55-.71,3.63-1.07,6.24-1.07h9.45v2.77h-9.34c-2.64,0-4.48.47-5.51,1.41-1.03.94-1.54,2.11-1.54,3.5,0,1.57.61,2.82,1.83,3.76,1.22.94,2.92,1.41,5.12,1.41s3.89-.48,5.4-1.44c1.51-.96,2.62-2.34,3.31-4.15l.84,2.56c-.7,1.81-1.91,3.25-3.63,4.33-1.72,1.08-3.89,1.62-6.5,1.62ZM421.28,162.44v-6.05l-.16-.99v-10.13c0-2.33-.65-4.12-1.96-5.38-1.31-1.25-3.25-1.88-5.82-1.88-1.77,0-3.46.3-5.06.89-1.6.59-2.96,1.38-4.07,2.35l-1.67-2.77c1.39-1.18,3.06-2.1,5.01-2.74,1.95-.64,4-.97,6.16-.97,3.55,0,6.29.88,8.22,2.64,1.93,1.76,2.9,4.43,2.9,8.01v17.02h-3.55Z"/>
        <path class="cls-1" d="M430.62,138.12v-3.08h16.96v3.08h-16.96ZM443.57,162.7c-2.58,0-4.56-.7-5.95-2.09-1.39-1.39-2.09-3.36-2.09-5.9v-25.73h3.71v25.52c0,1.6.41,2.84,1.23,3.71.82.87,1.99,1.3,3.52,1.3,1.64,0,2.99-.47,4.07-1.41l1.3,2.66c-.73.66-1.61,1.15-2.64,1.46-1.03.31-2.08.47-3.16.47Z"/>
        <path class="cls-1" d="M466.74,162.7c-2.85,0-5.36-.6-7.52-1.8-2.16-1.2-3.85-2.85-5.06-4.96-1.22-2.11-1.83-4.52-1.83-7.23s.58-5.12,1.75-7.2c1.17-2.09,2.77-3.73,4.8-4.93,2.04-1.2,4.32-1.8,6.86-1.8s4.86.58,6.86,1.75c2,1.17,3.57,2.8,4.72,4.91,1.15,2.11,1.72,4.53,1.72,7.28,0,.17,0,.36-.03.55-.02.19-.03.39-.03.6h-23.85v-2.77h21.87l-1.46,1.1c0-1.98-.43-3.75-1.28-5.3-.85-1.55-2.01-2.76-3.47-3.63-1.46-.87-3.15-1.3-5.06-1.3s-3.57.44-5.06,1.3c-1.5.87-2.66,2.09-3.5,3.65-.83,1.57-1.25,3.36-1.25,5.38v.57c0,2.09.46,3.92,1.38,5.51.92,1.58,2.21,2.82,3.86,3.71,1.65.89,3.54,1.33,5.66,1.33,1.67,0,3.23-.29,4.67-.89,1.44-.59,2.69-1.5,3.73-2.71l2.09,2.4c-1.22,1.46-2.74,2.58-4.57,3.34-1.83.76-3.84,1.15-6.03,1.15Z"/>
        <path class="cls-1" d="M486.63,162.44v-27.4h3.55v7.46l-.37-1.3c.76-2.09,2.05-3.68,3.86-4.78,1.81-1.1,4.05-1.64,6.73-1.64v3.6c-.14,0-.28,0-.42-.03-.14-.02-.28-.03-.42-.03-2.89,0-5.15.88-6.79,2.64-1.64,1.76-2.45,4.25-2.45,7.49v13.99h-3.71Z"/>
        <path class="cls-1" d="M541.38,134.78c2.23,0,4.17.43,5.82,1.28,1.65.85,2.94,2.15,3.86,3.89.92,1.74,1.38,3.93,1.38,6.58v15.92h-3.71v-15.55c0-2.89-.69-5.07-2.06-6.55-1.38-1.48-3.31-2.22-5.82-2.22-1.88,0-3.51.39-4.88,1.17-1.38.78-2.44,1.91-3.18,3.39-.75,1.48-1.12,3.26-1.12,5.35v14.41h-3.71v-15.55c0-2.89-.7-5.07-2.09-6.55-1.39-1.48-3.34-2.22-5.85-2.22-1.84,0-3.46.39-4.85,1.17-1.39.78-2.46,1.91-3.21,3.39-.75,1.48-1.12,3.26-1.12,5.35v14.41h-3.71v-27.4h3.55v7.41l-.57-1.3c.83-1.98,2.18-3.54,4.04-4.67,1.86-1.13,4.06-1.7,6.6-1.7,2.68,0,4.96.67,6.84,2.01,1.88,1.34,3.1,3.35,3.65,6.03l-1.46-.57c.8-2.23,2.22-4.03,4.25-5.4,2.04-1.37,4.48-2.06,7.33-2.06Z"/>
        <path class="cls-1" d="M570.25,162.7c-2.05,0-3.84-.34-5.35-1.02-1.51-.68-2.67-1.62-3.47-2.82-.8-1.2-1.2-2.58-1.2-4.15,0-1.43.34-2.72,1.02-3.89.68-1.17,1.79-2.11,3.34-2.82,1.55-.71,3.63-1.07,6.24-1.07h9.45v2.77h-9.34c-2.64,0-4.48.47-5.51,1.41-1.03.94-1.54,2.11-1.54,3.5,0,1.57.61,2.82,1.83,3.76,1.22.94,2.92,1.41,5.12,1.41s3.89-.48,5.4-1.44c1.51-.96,2.62-2.34,3.31-4.15l.84,2.56c-.7,1.81-1.91,3.25-3.63,4.33s-3.89,1.62-6.5,1.62ZM579.7,162.44v-6.05l-.16-.99v-10.13c0-2.33-.65-4.12-1.96-5.38-1.31-1.25-3.25-1.88-5.82-1.88-1.77,0-3.46.3-5.06.89-1.6.59-2.96,1.38-4.07,2.35l-1.67-2.77c1.39-1.18,3.06-2.1,5.01-2.74,1.95-.64,4-.97,6.16-.97,3.55,0,6.29.88,8.22,2.64,1.93,1.76,2.9,4.43,2.9,8.01v17.02h-3.55Z"/>
        <path class="cls-1" d="M593.32,162.44v-27.4h3.55v7.46l-.37-1.3c.76-2.09,2.05-3.68,3.86-4.78,1.81-1.1,4.05-1.64,6.73-1.64v3.6c-.14,0-.28,0-.42-.03-.14-.02-.28-.03-.42-.03-2.89,0-5.15.88-6.79,2.64-1.64,1.76-2.45,4.25-2.45,7.49v13.99h-3.71Z"/>
        <path class="cls-1" d="M613.83,162.44v-38.73h3.71v38.73h-3.71ZM616.75,155.34l.1-4.75,17.07-15.55h4.54l-12.06,11.54-2.09,1.77-7.57,6.99ZM635.08,162.44l-11.43-14.25,2.4-2.87,13.57,17.12h-4.54Z"/>
        <path class="cls-1" d="M647.08,128.99c-.77,0-1.41-.26-1.93-.78s-.78-1.15-.78-1.88.26-1.35.78-1.85c.52-.5,1.17-.76,1.93-.76s1.41.24,1.93.73c.52.49.78,1.1.78,1.83s-.25,1.41-.76,1.93c-.51.52-1.16.78-1.96.78ZM645.2,162.44v-27.4h3.71v27.4h-3.71Z"/>
        <path class="cls-1" d="M673.23,134.78c2.23,0,4.18.43,5.87,1.28,1.69.85,3.01,2.15,3.97,3.89.96,1.74,1.44,3.93,1.44,6.58v15.92h-3.71v-15.55c0-2.89-.72-5.07-2.17-6.55-1.44-1.48-3.47-2.22-6.08-2.22-1.95,0-3.65.39-5.09,1.17-1.44.78-2.56,1.91-3.34,3.39-.78,1.48-1.17,3.26-1.17,5.35v14.41h-3.71v-27.4h3.55v7.52l-.57-1.41c.87-1.98,2.26-3.54,4.18-4.67,1.91-1.13,4.19-1.7,6.84-1.7Z"/>
        <path class="cls-1" d="M705.54,161.4c-2.61,0-4.96-.57-7.05-1.7-2.09-1.13-3.73-2.71-4.93-4.72-1.2-2.02-1.8-4.33-1.8-6.94s.6-4.92,1.8-6.92c1.2-2,2.84-3.56,4.93-4.67,2.09-1.11,4.44-1.67,7.05-1.67,2.44,0,4.63.51,6.58,1.51,1.95,1.01,3.5,2.51,4.65,4.49,1.15,1.98,1.72,4.4,1.72,7.26s-.57,5.27-1.72,7.26c-1.15,1.98-2.7,3.5-4.65,4.54-1.95,1.04-4.14,1.57-6.58,1.57ZM706.22,172.83c-2.51,0-4.91-.37-7.2-1.1-2.3-.73-4.16-1.77-5.58-3.13l1.88-2.82c1.29,1.15,2.88,2.06,4.78,2.74,1.9.68,3.91,1.02,6.03,1.02,3.48,0,6.04-.81,7.67-2.43,1.64-1.62,2.45-4.13,2.45-7.54v-6.84l.52-4.7-.36-4.7v-8.3h3.55v24.06c0,4.73-1.16,8.2-3.47,10.41-2.31,2.21-5.73,3.32-10.26,3.32ZM705.91,158.11c2.02,0,3.81-.43,5.38-1.28,1.57-.85,2.8-2.04,3.71-3.55.9-1.51,1.36-3.26,1.36-5.25s-.45-3.72-1.36-5.22c-.91-1.5-2.14-2.67-3.71-3.52-1.57-.85-3.36-1.28-5.38-1.28s-3.77.43-5.35,1.28c-1.58.85-2.82,2.03-3.71,3.52-.89,1.5-1.33,3.24-1.33,5.22s.44,3.73,1.33,5.25c.89,1.51,2.12,2.7,3.71,3.55,1.58.85,3.37,1.28,5.35,1.28Z"/>
      </g>
    </g>
  </g>
</svg>