<?xml version="1.0" encoding="UTF-8"?>
<svg id="Ebene_2" xmlns="http://www.w3.org/2000/svg" viewBox="0 0 721.74 92.33">
  <defs>
    <style>
      .cls-1 {
        fill: #fff;
      }
    </style>
  </defs>
  <g id="logo">
    <g>
      <g>
        <path class="cls-1" d="M142.29,90.92h-19.82V1.42h19.82v89.5Z"/>
        <path class="cls-1" d="M160.44,25.33h19.05v8.95c5.5-7.67,12.4-10.36,20.33-10.36,18.41,0,23.4,14.7,23.4,31.33v35.67h-19.05v-35.29c0-9.08-3.32-15.98-12.15-15.98s-12.53,7.03-12.53,16.11v35.16h-19.05V25.33Z"/>
        <path class="cls-1" d="M238.82,25.33h19.05v8.95c5.5-7.67,12.4-10.36,20.33-10.36,18.41,0,23.4,14.7,23.4,31.33v35.67h-19.05v-35.29c0-9.08-3.32-15.98-12.15-15.98s-12.53,7.03-12.53,16.11v35.16h-19.05V25.33Z"/>
        <path class="cls-1" d="M384.96,25.33v65.59h-19.05v-9.59c-4.73,6.78-11,11-20.59,11-19.94,0-31.96-15.34-31.96-34.52s11.12-33.88,31.58-33.88c8.82,0,16.49,4.35,20.97,10.36v-8.95h19.05ZM349.29,76.85c9.33,0,17.13-6.01,17.13-17.9s-7.29-19.56-17.64-19.56-16.37,8.44-16.37,18.54,6.39,18.92,16.88,18.92Z"/>
        <path class="cls-1" d="M461.17,55.76v35.16h-18.92v-35.29c0-8.95-2.56-15.98-11-15.98s-10.87,7.29-10.87,16.11v35.16h-19.05V25.33h19.05v8.95c4.22-6.52,10.35-10.36,17.52-10.36,9.97,0,16.75,4.35,20.07,11,4.99-9.59,14.45-11,20.71-11,18.41,0,23.4,14.7,23.4,31.33v35.67h-19.05v-35.29c0-8.95-2.56-15.98-10.99-15.98s-10.87,7.29-10.87,16.11Z"/>
        <path class="cls-1" d="M585.45,25.33v65.59h-19.05v-9.59c-4.73,6.78-11,11-20.59,11-19.94,0-31.96-15.34-31.96-34.52s11.12-33.88,31.58-33.88c8.82,0,16.49,4.35,20.97,10.36v-8.95h19.05ZM549.78,76.85c9.33,0,17.13-6.01,17.13-17.9s-7.29-19.56-17.64-19.56-16.37,8.44-16.37,18.54,6.39,18.92,16.88,18.92Z"/>
        <path class="cls-1" d="M620.36,39.65c2.17-11.89,12.27-15.73,18.03-15.73,2.17,0,2.81.13,4.86.51v18.79c-2.69-.64-6.14-.9-8.05-.9-7.16,0-14.32,4.22-14.32,12.91v35.67h-19.05V25.33h18.54v14.32Z"/>
        <path class="cls-1" d="M690.67,25.33h21.1v2.56l-21.74,27.36,8.57,13.68c2.94,4.48,5.24,5.88,8.95,5.88,1.41,0,4.73-.64,7.03-2.3l7.16,13.43c-5.88,5.24-12.02,6.39-17.13,6.39-7.42,0-14.19-2.43-19.43-9.97l-13.17-21.23v29.79h-19.05V1.42h19.05v50.5l18.67-26.59Z"/>
      </g>
      <g>
        <path class="cls-1" d="M47.56,25.18h-23.93c-1.11,0-2.02.91-2.02,2.02v15.79h0c0,1.21-.98,2.2-2.2,2.2h0s-14.82,0-14.82,0c-1.12,0-2.02.91-2.02,2.02v37.64c0,3.35,2.72,6.07,6.07,6.07h9.28c2.27,0,4.41-1.04,5.82-2.81l11.71-14.74c.79-.99.08-2.46-1.19-2.46h-10.63c-1.12,0-2.02-.91-2.02-2.02v-21.49c0-1.22.99-2.2,2.2-2.2h0s14.82,0,14.82,0c1.12,0,2.02.91,2.02,2.02v41.68c0,1.11.91,2.02,2.02,2.02h15c1.12,0,2.02-.91,2.02-2.02v-51.58c0-6.7-5.43-12.14-12.14-12.14Z"/>
        <path class="cls-1" d="M12.02,21.48c6.78,0,12.15-4.35,12.15-10.61S18.79,0,12.02,0,0,4.48,0,10.87s5.11,10.61,12.02,10.61Z"/>
      </g>
    </g>
  </g>
</svg>